<svg width="115" height="105" viewBox="0 0 115 105" fill="none" xmlns="http://www.w3.org/2000/svg">
<path d="M56.0893 0.31162C58.5944 -0.980187 61.654 2.00614 60.3256 4.46946C59.5463 6.47778 56.6123 7.01123 55.1165 5.47885C53.5318 4.01445 54.0496 1.10658 56.0893 0.306391V0.31162ZM29.1287 3.16719C30.6506 2.55005 32.5805 3.92031 32.4236 5.5573C32.5805 7.32503 30.3839 8.63253 28.8306 7.7905C26.7752 7.006 27.0106 3.72157 29.1287 3.16719ZM84.3469 7.83757C81.9673 7.55515 81.5907 3.87324 83.8762 3.13058C85.6544 2.28333 87.2862 3.87847 87.5477 5.53638C87.1711 6.94847 85.9682 8.24551 84.3469 7.83757ZM35.2635 14.4535C37.8105 12.8688 41.4401 15.2275 41.0478 18.1406C40.9171 21.0747 36.9528 22.7796 34.7143 20.7922C32.5491 19.2337 32.8786 15.6564 35.2635 14.4535ZM74.1223 16.1376C75.2572 13.2611 79.8596 13.1669 81.1514 15.9702C82.4327 18.1511 80.8585 20.855 78.5835 21.5977C75.5658 22.152 72.7049 18.9408 74.1223 16.1376ZM52.8415 21.4355C52.8153 18.9565 55.106 17.1156 57.4962 16.943C59.0861 17.2568 60.812 17.921 61.4919 19.4952C62.7627 21.6709 61.6331 24.6572 59.3476 25.6561C58.3016 26.2314 57.0568 26.017 55.9167 25.949C54.1751 25.1122 52.7055 23.4543 52.8415 21.4355ZM12.7484 25.0442C15.0757 23.6321 18.2137 26.1948 17.3299 28.6843C16.8487 30.8338 13.9094 31.7072 12.2306 30.337C10.4367 29.0504 10.7191 25.9595 12.7536 25.039L12.7484 25.0442ZM98.8444 25.0338C100.816 23.5275 104.074 25.2587 103.834 27.7063C103.97 29.9395 101.151 31.6288 99.1948 30.4782C97.0401 29.5211 96.8152 26.2576 98.8444 25.039V25.0338ZM64.1173 29.4845C67.3704 28.3339 71.2406 29.7094 73.092 32.5702C75.5396 36.0586 74.2426 41.3722 70.4404 43.3753C66.5074 45.7445 60.7597 43.7414 59.3005 39.411C57.6531 35.5408 60.0588 30.6978 64.1121 29.4845H64.1173ZM45.0122 29.8663C48.6209 28.1927 53.4795 29.5943 55.2211 33.2239C57.2713 36.7594 55.6866 41.6808 52.0204 43.5061C48.3489 45.5615 43.166 44.0029 41.393 40.2112C39.4004 36.5397 41.1681 31.5556 45.0122 29.8663ZM25.8861 36.2939C26.1633 34.0084 28.3547 32.5179 30.5669 32.361C31.7207 32.4828 32.799 32.9925 33.6255 33.8066C34.452 34.6208 34.9778 35.6913 35.117 36.8431C34.9601 39.1966 33.1139 41.4873 30.5826 41.4768C27.7951 41.7122 25.3526 38.9821 25.8861 36.2939ZM82.3804 32.8631C85.2412 31.2261 89.2108 33.6057 89.0853 36.8378C89.2788 40.2635 84.8856 42.6745 82.0405 40.6662C79.0803 38.9926 79.3104 34.2856 82.3804 32.8631ZM37.2456 44.9286C40.5824 44.0238 44.4107 45.5719 46.0477 48.5949C47.8416 51.6387 47.1094 55.8645 44.3218 58.103C40.7393 61.3769 34.1443 60.059 32.2405 55.5926C30.0492 51.4975 32.7112 46.006 37.2404 44.9234L37.2456 44.9286ZM73.4738 44.9129C76.7216 43.9977 80.5395 45.2267 82.2863 48.1398C84.5979 51.4713 83.4944 56.4451 80.0583 58.5894C76.4496 61.0841 70.8745 59.7766 68.8871 55.875C66.4813 51.8427 68.9027 46.142 73.4738 44.9129ZM15.7347 48.7099C18.6217 47.6378 21.8224 50.7705 20.6509 53.5895C19.9396 56.1522 16.2629 57.104 14.3645 55.2108C12.1417 53.4326 12.9628 49.484 15.7347 48.7099ZM94.0224 52.7998C93.9682 51.6485 94.3707 50.5223 95.1425 49.6663C95.9143 48.8103 96.9929 48.2937 98.1436 48.2288C100.121 48.5426 102.045 50.1116 101.888 52.2297C102.071 55.0277 98.6457 56.9262 96.219 55.6135C95.0841 55.0434 94.5035 53.8981 94.0224 52.7998ZM1.53529 50.1011C3.27165 49.3532 5.42117 50.8333 5.02369 52.7318C4.92955 54.8813 1.70265 55.7129 0.520674 53.9138C-0.525323 52.6638 0.102277 50.7444 1.53529 50.0959V50.1011ZM111.098 50.054C112.322 49.2015 114.289 49.8134 114.77 51.2203C115.591 52.7579 114.085 54.8604 112.327 54.6041C109.859 54.8238 109.064 51.1262 111.098 50.054ZM46.6805 60.3728C51.2515 59.2065 56.1677 62.9564 56.1991 67.5902C56.492 72.271 51.649 76.4184 46.9734 75.341C43.3543 74.7657 40.5144 71.3348 40.6347 67.7418C40.6242 64.3005 43.2601 61.0998 46.6805 60.3728ZM64.7868 60.3676C69.4258 59.0914 74.4884 62.9093 74.4152 67.6477C74.661 72.2396 69.9697 76.251 65.3882 75.3358C61.0735 74.7919 57.8936 70.1319 59.0965 66.0107C59.7032 63.2702 62.0358 61.0422 64.7868 60.3623V60.3676ZM29.8714 63.2179C33.0826 62.6792 36.095 66.199 34.7928 69.201C33.8409 72.4018 29.113 73.2647 27.021 70.6549C24.5734 68.1445 26.4039 63.5631 29.8714 63.2179ZM82.9766 63.3591C85.8427 62.1771 89.3572 64.6143 89.1376 67.6739C89.2526 71.0367 84.9117 73.3588 82.1137 71.3924C78.9391 69.6299 79.5196 64.4365 82.9766 63.3591ZM97.8194 78.0031C96.7001 75.9477 98.7346 73.2229 101.062 73.6047C102.213 73.5837 103.023 74.4781 103.761 75.2312C103.912 76.4498 104.169 77.9037 103.138 78.8399C101.742 80.5815 98.5777 80.0846 97.8194 78.0031ZM12.7379 74.1747C14.9084 72.7574 18.0307 74.8755 17.5391 77.365C17.2776 79.5773 14.4534 80.8377 12.5967 79.5825C10.5989 78.4476 10.6721 75.2103 12.7379 74.1747ZM55.5872 78.7928C58.4271 77.5638 62.0462 79.9957 61.7743 83.0709C61.9835 86.4704 57.5118 88.8239 54.7347 86.7842C51.649 85.0322 52.1668 79.8754 55.5872 78.7928ZM35.7446 83.3481C38.1609 82.0982 41.4035 84.2581 41.1838 86.9254C41.257 89.1116 39.0918 90.9734 36.8952 90.6492C35.0804 90.6126 33.8984 89.007 33.3127 87.485C33.3441 85.8271 34.0397 83.9809 35.7446 83.3533V83.3481ZM75.9423 83.39C78.4318 81.8733 81.9673 84.0489 81.7319 86.8941C81.7947 89.8751 77.799 91.7789 75.4821 89.8228C73.2436 88.2905 73.5156 84.6085 75.9423 83.39ZM82.9348 100.387C81.826 98.7452 83.1283 96.763 84.9222 96.3865C86.3709 96.6741 87.9033 97.7463 87.5947 99.3885C87.3855 101.622 84.0697 102.302 82.9348 100.393V100.387ZM27.4394 98.9596C27.8787 97.6521 28.9457 96.3603 30.5094 96.7003C32.7845 96.8572 33.4591 100.236 31.4665 101.277C29.6779 102.464 27.5963 100.837 27.4394 98.9596ZM54.2169 100.461C54.651 98.5255 57.1876 97.5894 58.8612 98.6145C59.9699 99.0852 60.2942 100.299 60.5766 101.334C60.4273 101.872 60.2879 102.412 60.1582 102.955C59.4731 103.75 58.5892 104.55 57.4491 104.524C55.3309 104.77 53.4168 102.411 54.2117 100.461H54.2169Z" fill="url(#paint0_linear_4014_328)"/>
<defs>
<linearGradient id="paint0_linear_4014_328" x1="59.1098" y1="0" x2="59.1098" y2="104.542" gradientUnits="userSpaceOnUse">
<stop offset="0.427627" stop-color="#D5FFE3"/>
<stop offset="1" stop-color="#B7FFD0"/>
</linearGradient>
</defs>
</svg>
