<svg width="92" height="120" viewBox="0 0 92 120" fill="none" xmlns="http://www.w3.org/2000/svg">
<path fill-rule="evenodd" clip-rule="evenodd" d="M19.6773 11.5763L40.1566 17.0607L44.7337 0L54.9733 2.77864L50.5745 19.1345L58.9266 21.3785L63.3336 4.84439L73.7514 7.63114L69.2635 24.2544C69.2635 24.2544 86.2756 28.0213 90.2775 41.8578C94.2794 55.6943 81.4798 62.9609 77.5265 63.2363C77.5265 63.2363 92.4323 71.4102 87.3125 87.4907C82.1927 103.571 66.4767 106.447 49.9426 102.761L45.4547 120L35.0368 117.213L39.6139 100.242L31.3508 97.9896L26.7738 115.083L16.4369 112.304L21.0221 95.292L0 89.6213L5.29805 77.8586C5.29805 77.8586 11.228 79.4788 13.4719 80.0135C15.7159 80.5482 17.1579 78.2151 17.7898 75.882C18.4217 73.5489 27.9403 34.8829 28.8395 31.6992C29.7387 28.5155 29.3742 26.0285 25.5991 25.0483C21.8241 24.068 16.688 22.537 16.688 22.537L19.6773 11.5763ZM40.3348 62.7827L34.6641 85.3278C34.6641 85.3278 62.7827 95.4783 66.3795 81.1962C69.9764 66.9142 40.3348 62.7827 40.3348 62.7827ZM42.9434 52.0894L48.5087 31.4318C48.5087 31.4318 72.5849 35.7416 69.6199 47.2369C66.655 58.7322 52.462 54.3253 42.9434 52.0894Z" fill="url(#paint0_linear_4014_354)"/>
<defs>
<linearGradient id="paint0_linear_4014_354" x1="46.7959" y1="0" x2="46.7959" y2="120" gradientUnits="userSpaceOnUse">
<stop offset="0.427627" stop-color="#D5FFE3"/>
<stop offset="1" stop-color="#B7FFD0"/>
</linearGradient>
</defs>
</svg>
