<svg width="85" height="120" viewBox="0 0 85 120" fill="none" xmlns="http://www.w3.org/2000/svg">
<path d="M75.01 89.3787C68.5221 96.4116 59.9004 101.114 50.4747 102.762L46.651 120L35.4986 117.515L38.685 103.144C34.8425 102.744 31.0705 101.833 27.4689 100.436L24.2825 114.997L13.1301 112.512L17.0812 94.6362C10.5024 89.6303 5.49393 82.8459 2.64764 75.0846C-0.198658 67.3232 -0.763831 58.9093 1.01884 50.837C2.80152 42.7647 6.85757 35.3714 12.7077 29.5306C18.5579 23.6897 25.9577 19.6455 34.0329 17.8757L37.984 0L49.1364 2.48539L45.95 17.0472C49.8059 17.3049 53.6102 18.0765 57.2618 19.3414L60.4482 4.97079L71.6006 7.45618L67.7769 24.6947C72.4853 27.9701 76.4934 32.1514 79.5666 36.9941C81.6324 40.1665 83.2514 43.6083 84.3781 47.2225L66.4387 52.8943C65.7818 50.8509 64.8831 48.8934 63.762 47.0632C61.1468 42.9739 57.3776 39.7522 52.931 37.8057C48.4843 35.8592 43.5603 35.2755 38.7818 36.1282C34.0033 36.9809 29.5851 39.2319 26.0862 42.5963C22.5873 45.9607 20.1651 50.2873 19.1258 55.0287C18.0865 59.7701 18.4769 64.7133 20.2477 69.2328C22.0185 73.7522 25.0901 77.6449 29.0738 80.4183C33.0575 83.1916 37.7743 84.721 42.6274 84.8129C47.4805 84.9048 52.2518 83.5552 56.3377 80.9347C58.1371 79.7604 59.7852 78.3691 61.2448 76.7923L75.0738 89.538L75.01 89.3787Z" fill="url(#paint0_linear_4014_356)"/>
<defs>
<linearGradient id="paint0_linear_4014_356" x1="43.3701" y1="0" x2="43.3701" y2="120" gradientUnits="userSpaceOnUse">
<stop offset="0.427627" stop-color="#D5FFE3"/>
<stop offset="1" stop-color="#B7FFD0"/>
</linearGradient>
</defs>
</svg>
