<svg width="73" height="100" viewBox="0 0 73 100" fill="none" xmlns="http://www.w3.org/2000/svg">
<path d="M36.1371 55.5362L28.1351 82.4078H70.7134C70.9949 82.3936 71.2762 82.4386 71.5392 82.5399C71.802 82.6385 72.0432 82.7872 72.2494 82.9776C72.4541 83.1728 72.6196 83.4055 72.7367 83.663C72.8606 83.921 72.9282 84.2026 72.9348 84.4888V85.1907L69.227 97.9659C69.0682 98.5717 68.7032 99.1032 68.1947 99.4688C67.6911 99.8384 67.0764 100.025 66.4523 99.9974H1.29651L12.2136 62.8363L0 66.5358L2.7747 58.0218L14.9883 54.314L30.3565 2.04069C30.5229 1.43845 30.89 0.911104 31.397 0.545987C31.8983 0.176464 32.5086 -0.0153288 33.1312 0.00095792H49.6472C49.929 -0.00627589 50.2095 0.0414079 50.473 0.141346C50.7392 0.238037 50.9835 0.386828 51.1915 0.57902C51.3999 0.771008 51.5659 1.00448 51.6787 1.26444C51.7971 1.52407 51.8617 1.80497 51.8686 2.09024V2.80043L38.9118 46.857L51.1337 43.1491L48.5241 52.0182L36.1371 55.5362Z" fill="url(#paint0_linear_4014_352)"/>
<defs>
<linearGradient id="paint0_linear_4014_352" x1="37.4884" y1="0" x2="37.4884" y2="100" gradientUnits="userSpaceOnUse">
<stop offset="0.427627" stop-color="#D5FFE3"/>
<stop offset="1" stop-color="#B7FFD0"/>
</linearGradient>
</defs>
</svg>
