<svg width="102" height="110" viewBox="0 0 102 110" fill="none" xmlns="http://www.w3.org/2000/svg">
<path d="M67.2612 2.95941C60.0337 7.20542 55.7541 14.873 55.7541 22.9585C55.7541 27.2045 57.4591 31.4835 59.5937 35.3011C61.2987 38.7111 62.1347 44.6627 56.1837 47.6437C51.9371 50.1847 46.3816 48.4907 43.8406 44.2337C41.299 40.8237 38.318 37.4137 34.4784 34.8721C27.2509 30.6261 18.7248 30.6261 11.4967 34.8721C4.26856 39.1181 0 46.8049 0 54.8927C0 62.9804 4.24656 70.6452 11.495 74.9028C18.7226 79.1488 27.2487 79.1488 34.4768 74.9028C38.3163 72.7688 41.2968 69.3808 43.4099 65.5412C45.1149 62.5602 49.8015 58.7212 55.753 62.1312C59.9996 64.6722 61.2756 70.2278 59.163 74.4738C57.029 78.3128 55.753 82.5704 55.753 86.8164C55.753 94.9129 59.9996 102.569 67.2601 106.815C74.4877 111.062 83.0138 111.062 90.2419 106.815C97.47 102.569 101.75 94.9019 101.75 86.8164C101.75 78.7308 97.4926 71.0638 90.243 66.8063C86.4035 64.6722 82.1459 63.8252 77.4704 63.8252C73.6308 63.8252 68.5372 61.2842 68.5372 54.8927C68.5372 49.7777 72.3768 45.9601 77.4704 45.9601C81.7169 45.9601 86.4035 45.1131 90.243 42.9791C97.4706 38.7331 101.75 31.0655 101.75 22.9805C101.75 14.8955 97.4926 7.22797 90.243 2.98141C86.833 0.847408 82.5859 0.000406748 78.748 0.000406748C74.9305 -0.0215933 70.6509 0.847408 67.2629 2.95941" fill="url(#paint0_linear_4014_355)"/>
<defs>
<linearGradient id="paint0_linear_4014_355" x1="52.2994" y1="0" x2="52.2994" y2="110" gradientUnits="userSpaceOnUse">
<stop offset="0.427627" stop-color="#D5FFE3"/>
<stop offset="1" stop-color="#B7FFD0"/>
</linearGradient>
</defs>
</svg>
