<svg width="103" height="110" viewBox="0 0 103 110" fill="none" xmlns="http://www.w3.org/2000/svg">
<path d="M40.3191 91.0553C39.4423 91.0553 38.5532 91.0553 37.6393 90.9481C37.3118 90.9197 37.0094 90.767 36.7986 90.5236C36.5879 90.2802 36.486 89.966 36.5155 89.6502C36.545 89.3344 36.7034 89.0428 36.9558 88.8396C37.2082 88.6364 37.5341 88.5382 37.8616 88.5666C42.2745 88.8603 46.7049 88.3389 50.915 87.0305C51.2203 86.9334 51.5528 86.9549 51.8419 87.0904C52.1311 87.2259 52.354 87.4648 52.4633 87.7563C52.5727 88.0478 52.5598 88.3689 52.4275 88.6514C52.2952 88.9339 52.0538 89.1555 51.7547 89.2691C48.0616 90.431 44.2039 91.0336 40.3191 91.0553Z" fill="url(#paint0_linear_4014_350)"/>
<path d="M51.3349 98.3902C49.9924 98.4225 48.6504 98.3107 47.3336 98.0568C47.1709 98.0244 47.0166 97.9606 46.88 97.8693C46.7434 97.778 46.6273 97.6611 46.5387 97.5255C46.4501 97.3899 46.3908 97.2385 46.3644 97.0802C46.3379 96.922 46.3449 96.7603 46.3848 96.6047C46.4247 96.4492 46.4968 96.303 46.5967 96.1749C46.6966 96.0469 46.8223 95.9396 46.9662 95.8595C47.1102 95.7793 47.2694 95.7281 47.4344 95.7087C47.5994 95.6894 47.7667 95.7023 47.9264 95.7468C49.0498 95.9496 50.1923 96.0374 51.3349 96.0088C52.4773 96.0337 53.6194 95.9459 54.7433 95.7468C54.903 95.7023 55.0703 95.6894 55.2353 95.7087C55.4003 95.7281 55.5595 95.7793 55.7035 95.8595C55.8474 95.9396 55.9731 96.0469 56.073 96.1749C56.1729 96.303 56.245 96.4492 56.2849 96.6047C56.3248 96.7603 56.3318 96.922 56.3053 97.0802C56.2789 97.2385 56.2196 97.3899 56.131 97.5255C56.0424 97.6611 55.9263 97.778 55.7897 97.8693C55.6531 97.9606 55.4989 98.0244 55.3361 98.0568C54.0193 98.3107 52.6773 98.4225 51.3349 98.3902Z" fill="url(#paint1_linear_4014_350)"/>
<path d="M51.3349 89.3406C51.0073 89.3406 50.6932 89.2151 50.4616 88.9918C50.23 88.7685 50.0999 88.4656 50.0999 88.1498V81.4221C50.0999 81.1063 50.23 80.8035 50.4616 80.5801C50.6932 80.3568 51.0073 80.2314 51.3349 80.2314C51.6624 80.2314 51.9765 80.3568 52.2081 80.5801C52.4397 80.8035 52.5698 81.1063 52.5698 81.4221V88.1498C52.5698 88.4656 52.4397 88.7685 52.2081 88.9918C51.9765 89.2151 51.6624 89.3406 51.3349 89.3406Z" fill="url(#paint2_linear_4014_350)"/>
<path d="M51.2361 70.8483C47.84 70.8483 44.3574 71.8843 44.271 74.3491C44.1104 78.7549 48.1981 83.2083 51.2361 83.1011C54.3605 83.2083 58.5593 78.7549 58.3988 74.3491C58.3 71.8962 54.731 70.8483 51.2361 70.8483Z" fill="url(#paint3_linear_4014_350)"/>
<path d="M62.3506 91.0553C58.4659 91.0336 54.6081 90.431 50.915 89.2691C50.7582 89.2192 50.6134 89.1395 50.4891 89.0347C50.3648 88.9299 50.2635 88.8022 50.1913 88.659C50.1192 88.5158 50.0775 88.3601 50.0688 88.2011C50.0601 88.0421 50.0845 87.8831 50.1407 87.7334C50.1969 87.5837 50.2836 87.4463 50.3958 87.3295C50.5079 87.2127 50.6432 87.1187 50.7937 87.0532C50.9442 86.9877 51.1068 86.9519 51.2719 86.948C51.4369 86.9441 51.6011 86.9722 51.7547 87.0305C55.9672 88.3285 60.3956 88.8496 64.8081 88.5666C65.1357 88.5382 65.4615 88.6364 65.7139 88.8396C65.9664 89.0428 66.1248 89.3344 66.1542 89.6502C66.1837 89.966 66.0819 90.2802 65.8711 90.5236C65.6604 90.767 65.358 90.9197 65.0304 90.9481C64.1166 91.0195 63.2274 91.0553 62.3506 91.0553Z" fill="url(#paint4_linear_4014_350)"/>
<path d="M64.1289 89.7693L59.4485 89.8407L59.1397 98.7713L64.1289 89.7693Z" fill="url(#paint5_linear_4014_350)"/>
<path d="M38.5408 89.7693L43.53 98.7713L43.2213 89.8407L38.5408 89.7693Z" fill="url(#paint6_linear_4014_350)"/>
<path d="M95.3113 42.5443C95.3113 42.5443 104.425 15.7168 102.363 6.0599C101.239 0.820627 98.374 -1.39416 92.224 0.90398C82.0974 4.69055 72.6501 19.0152 72.6501 19.0152C65.6655 17.3879 58.5189 16.4936 51.3349 16.3479C44.1509 16.4936 37.0042 17.3879 30.0197 19.0152C30.0197 19.0152 20.5723 4.72627 10.4457 0.90398C4.27101 -1.39416 1.43063 0.820627 0.306829 6.0599C-1.76788 15.7168 7.35838 42.5443 7.35838 42.5443C5.03687 47.7807 3.01268 53.1351 1.29479 58.5837C-0.0142586 63.3466 0.195683 71.3008 0.195683 71.3008V72.182C0.116403 78.0232 2.11717 83.714 5.86409 88.3046C15.4102 100.474 38.1456 110 51.3349 110C64.5241 110 87.2595 100.474 96.7933 88.3046C100.539 83.7135 102.54 78.0231 102.462 72.182V71.3008C102.462 71.3008 102.672 63.3109 101.363 58.5837C99.6487 53.1353 97.6287 47.781 95.3113 42.5443ZM69.8591 44.4138C70.2419 42.33 72.1437 39.5079 74.9471 39.5079C77.417 39.5079 80.4549 42.5681 80.5167 44.6043C80.5784 46.6405 78.0468 47.6169 75.0953 47.4978C72.1437 47.3787 69.5009 46.5095 69.8591 44.4138ZM71.2422 55.0114C75.898 52.4037 81.6281 50.308 83.1471 51.6416C84.6661 52.9752 84.592 58.7861 76.5895 61.8463C69.5256 64.5255 63.9437 63.4657 63.2892 62.2154C62.1901 60.0602 68.6241 56.5118 71.2669 55.0114H71.2422ZM27.6733 39.5317C30.4766 39.5317 32.3784 42.3538 32.7612 44.4376C33.1441 46.5214 30.4643 47.3907 27.5251 47.5216C24.5859 47.6526 22.0419 46.6524 22.1037 44.6281C22.1654 42.6039 25.1787 39.5079 27.698 39.5079L27.6733 39.5317ZM19.4979 51.6535C21.0169 50.3199 26.7471 52.4156 31.4028 55.0233C34.0703 56.5237 40.4797 60.0721 39.3559 62.2273C38.7013 63.4181 33.1811 64.5374 26.0555 61.8582C18.053 58.798 17.9913 52.9633 19.4979 51.6535ZM94.8297 86.8876C85.9134 98.3545 63.6843 107.619 51.3349 107.619C38.9854 107.619 16.8181 98.3664 7.85236 86.8876C4.5495 82.8976 2.73168 77.9538 2.69028 72.8488C7.54533 72.6478 12.4062 73.0845 17.1392 74.1467C21.8443 75.4089 28.4019 81.565 28.476 81.6246L29.9456 83.0177L30.526 81.1125C30.526 81.0292 33.07 72.7773 37.5034 69.2051C41.1218 66.264 45.3948 64.9422 51.3349 64.9422C57.275 64.9422 61.5479 66.264 65.1663 69.2051C69.5997 72.7773 72.119 81.0292 72.1437 81.1125L72.7242 83.0177L74.1937 81.6246C74.2678 81.6246 80.8254 75.4089 85.5306 74.1467C90.2646 73.0905 95.1246 72.654 99.9794 72.8488C99.9353 77.9497 98.1176 82.8889 94.8174 86.8757L94.8297 86.8876Z" fill="url(#paint7_linear_4014_350)"/>
<defs>
<linearGradient id="paint0_linear_4014_350" x1="52.7705" y1="0" x2="52.7705" y2="110" gradientUnits="userSpaceOnUse">
<stop offset="0.427627" stop-color="#D5FFE3"/>
<stop offset="1" stop-color="#B7FFD0"/>
</linearGradient>
<linearGradient id="paint1_linear_4014_350" x1="52.7705" y1="0" x2="52.7705" y2="110" gradientUnits="userSpaceOnUse">
<stop offset="0.427627" stop-color="#D5FFE3"/>
<stop offset="1" stop-color="#B7FFD0"/>
</linearGradient>
<linearGradient id="paint2_linear_4014_350" x1="52.7705" y1="0" x2="52.7705" y2="110" gradientUnits="userSpaceOnUse">
<stop offset="0.427627" stop-color="#D5FFE3"/>
<stop offset="1" stop-color="#B7FFD0"/>
</linearGradient>
<linearGradient id="paint3_linear_4014_350" x1="52.7705" y1="0" x2="52.7705" y2="110" gradientUnits="userSpaceOnUse">
<stop offset="0.427627" stop-color="#D5FFE3"/>
<stop offset="1" stop-color="#B7FFD0"/>
</linearGradient>
<linearGradient id="paint4_linear_4014_350" x1="52.7705" y1="0" x2="52.7705" y2="110" gradientUnits="userSpaceOnUse">
<stop offset="0.427627" stop-color="#D5FFE3"/>
<stop offset="1" stop-color="#B7FFD0"/>
</linearGradient>
<linearGradient id="paint5_linear_4014_350" x1="52.7705" y1="0" x2="52.7705" y2="110" gradientUnits="userSpaceOnUse">
<stop offset="0.427627" stop-color="#D5FFE3"/>
<stop offset="1" stop-color="#B7FFD0"/>
</linearGradient>
<linearGradient id="paint6_linear_4014_350" x1="52.7705" y1="0" x2="52.7705" y2="110" gradientUnits="userSpaceOnUse">
<stop offset="0.427627" stop-color="#D5FFE3"/>
<stop offset="1" stop-color="#B7FFD0"/>
</linearGradient>
<linearGradient id="paint7_linear_4014_350" x1="52.7705" y1="0" x2="52.7705" y2="110" gradientUnits="userSpaceOnUse">
<stop offset="0.427627" stop-color="#D5FFE3"/>
<stop offset="1" stop-color="#B7FFD0"/>
</linearGradient>
</defs>
</svg>
