<svg width="109" height="100" viewBox="0 0 109 100" fill="none" xmlns="http://www.w3.org/2000/svg">
<path fill-rule="evenodd" clip-rule="evenodd" d="M65.3267 53.7552C64.7098 53.8015 61.5226 53.9917 54.4132 53.9917C48.7586 53.9917 44.7437 53.822 43.3352 53.7552C21.4826 52.7939 5.17144 48.9899 5.17144 44.4353C5.17144 39.8807 21.4826 36.0818 43.3352 35.1051V49.9666C44.7643 50.0694 48.8562 50.311 54.5109 50.311C61.2965 50.311 64.6944 50.0283 65.3061 49.9717V35.1154C87.1125 36.087 103.388 39.891 103.388 44.4353C103.388 48.9796 87.1177 52.7836 65.3061 53.7501L65.3267 53.7552ZM65.3267 33.5784V20.2796H95.759V0H12.9029V20.2796H43.3301V33.5732C18.5987 34.7093 0 39.6083 0 45.4788C0 51.3494 18.5987 56.2433 43.3301 57.3845V100H65.3215V57.369C89.9964 56.233 108.564 51.3391 108.564 45.4737C108.564 39.6083 90.0118 34.7144 65.3215 33.5732L65.3267 33.5784Z" fill="url(#paint0_linear_4014_353)"/>
<defs>
<linearGradient id="paint0_linear_4014_353" x1="55.8018" y1="0" x2="55.8018" y2="100" gradientUnits="userSpaceOnUse">
<stop offset="0.427627" stop-color="#D5FFE3"/>
<stop offset="1" stop-color="#B7FFD0"/>
</linearGradient>
</defs>
</svg>
