<svg width="64" height="115" viewBox="0 0 64 115" fill="none" xmlns="http://www.w3.org/2000/svg">
<path d="M26.4272 79.6145H62.6349V98.877H40.3537C40.7217 104.385 40.9114 109.497 41.2794 115H22.5287V99.0725H0.241667C0.241667 92.7878 -0.50008 86.4973 0.61542 80.5977C1.17317 77.4525 4.51392 74.6982 6.55517 71.9498C13.6176 63.1242 20.7362 54.3437 27.9107 45.609C30.6994 42.2625 33.4824 39.1173 36.6392 35.3855H1.90917V16.123H22.5287V0H40.5377V15.7262H63.0087C63.0087 22.2122 63.7504 28.5027 62.6349 34.4022C62.0772 37.5475 58.7364 40.3018 56.5112 43.0503C49.4488 51.8758 42.3301 60.6563 35.1557 69.391C32.3543 72.8897 29.4434 76.2993 26.4272 79.6145Z" fill="url(#paint0_linear_4014_357)"/>
<defs>
<linearGradient id="paint0_linear_4014_357" x1="32.5105" y1="0" x2="32.5105" y2="115" gradientUnits="userSpaceOnUse">
<stop offset="0.427627" stop-color="#D5FFE3"/>
<stop offset="1" stop-color="#B7FFD0"/>
</linearGradient>
</defs>
</svg>
