<svg width="31" height="31" viewBox="0 0 31 31" fill="none" xmlns="http://www.w3.org/2000/svg">
<path fill-rule="evenodd" clip-rule="evenodd" d="M30.9166 15.5C30.9166 24.0144 24.0144 30.9166 15.5 30.9166C6.98559 30.9166 0.083313 24.0144 0.083313 15.5C0.083313 6.98559 6.98559 0.083313 15.5 0.083313C24.0144 0.083313 30.9166 6.98559 30.9166 15.5ZM21.7134 10.8282C22.1649 11.2798 22.1649 12.0119 21.7134 12.4634L14.0051 20.1717C13.5535 20.6233 12.8214 20.6233 12.3699 20.1717L9.28655 17.0884C8.83501 16.6369 8.83501 15.9048 9.28655 15.4532C9.7381 15.0017 10.4702 15.0017 10.9217 15.4532L13.1875 17.719L16.6329 14.2736L20.0782 10.8282C20.5298 10.3767 21.2619 10.3767 21.7134 10.8282Z" fill="#44C678"/>
</svg>
