<svg width="25" height="24" viewBox="0 0 25 24" fill="none" xmlns="http://www.w3.org/2000/svg">
<path fill-rule="evenodd" clip-rule="evenodd" d="M18.0303 13.9697C18.3232 14.2626 18.3232 14.7374 18.0303 15.0303L13.0303 20.0303C12.7374 20.3232 12.2626 20.3232 11.9697 20.0303L6.96967 15.0303C6.67678 14.7374 6.67678 14.2626 6.96967 13.9697C7.26256 13.6768 7.73744 13.6768 8.03033 13.9697L11.75 17.6893L11.75 9.5C11.75 8.78668 11.5298 7.70001 10.8913 6.81323C10.2804 5.96468 9.25556 5.25 7.5 5.25C7.08579 5.25 6.75 4.91421 6.75 4.5C6.75 4.08579 7.08579 3.75 7.5 3.75C9.74444 3.75 11.2196 4.70198 12.1087 5.93677C12.9702 7.13332 13.25 8.54665 13.25 9.5L13.25 17.6893L16.9697 13.9697C17.2626 13.6768 17.7374 13.6768 18.0303 13.9697Z" fill="white"/>
</svg>
