<svg width="21" height="18" viewBox="0 0 21 18" fill="none" xmlns="http://www.w3.org/2000/svg">
<path fill-rule="evenodd" clip-rule="evenodd" d="M0.0412598 13.1436V1.9978C0.0412598 0.899632 0.92756 0.00752202 2.02366 0.0748885C3.00003 0.134896 4.15475 0.25351 5.04126 0.487444C6.09047 0.76431 7.33737 1.35401 8.32351 1.87546C8.63062 2.03785 8.9572 2.15048 9.29144 2.21397V17.3926C8.98843 17.3258 8.69282 17.218 8.41368 17.0692C7.41419 16.5365 6.12271 15.9187 5.04126 15.6334C4.16455 15.402 3.02554 15.2835 2.05612 15.2228C0.947305 15.1535 0.0412598 14.2546 0.0412598 13.1436ZM3.22334 5.27239C2.82149 5.17193 2.41429 5.41625 2.31383 5.8181C2.21337 6.21994 2.45769 6.62715 2.85954 6.72761L6.85954 7.72761C7.26138 7.82807 7.66858 7.58375 7.76904 7.1819C7.86951 6.78006 7.62519 6.37285 7.22334 6.27239L3.22334 5.27239ZM3.22334 9.27239C2.82149 9.17193 2.41429 9.41625 2.31383 9.8181C2.21337 10.2199 2.45769 10.6271 2.85954 10.7276L6.85954 11.7276C7.26138 11.8281 7.66858 11.5837 7.76904 11.1819C7.86951 10.7801 7.62519 10.3729 7.22334 10.2724L3.22334 9.27239Z" fill="white"/>
<path fill-rule="evenodd" clip-rule="evenodd" d="M10.7914 17.3925C11.0943 17.3257 11.3898 17.218 11.6688 17.0692C12.6683 16.5365 13.9598 15.9187 15.0413 15.6334C15.918 15.402 17.057 15.2835 18.0264 15.2228C19.1352 15.1535 20.0413 14.2546 20.0413 13.1436V1.93319C20.0413 0.860746 19.195 -0.0195874 18.1232 0.0177469C16.9947 0.0570592 15.5882 0.174028 14.5413 0.487444C13.6336 0.759163 12.5766 1.30418 11.7151 1.80275C11.4237 1.97142 11.1122 2.0953 10.7914 2.17387V17.3925ZM17.2233 6.72761C17.6252 6.62715 17.8695 6.21994 17.769 5.8181C17.6686 5.41625 17.2614 5.17193 16.8595 5.27239L12.8595 6.27239C12.4577 6.37285 12.2134 6.78006 12.3138 7.1819C12.4143 7.58375 12.8215 7.82807 13.2233 7.72761L17.2233 6.72761ZM17.2233 10.7276C17.6252 10.6271 17.8695 10.2199 17.769 9.8181C17.6686 9.41625 17.2614 9.17193 16.8595 9.27239L12.8595 10.2724C12.4577 10.3729 12.2134 10.7801 12.3138 11.1819C12.4143 11.5837 12.8215 11.8281 13.2233 11.7276L17.2233 10.7276Z" fill="white"/>
</svg>
