<svg width="26" height="34" viewBox="0 0 26 34" fill="none" xmlns="http://www.w3.org/2000/svg">
<path fill-rule="evenodd" clip-rule="evenodd" d="M5.76826 3.41594L11.5137 4.95458L12.7978 0.168213L15.6705 0.947758L14.4364 5.5364L16.7796 6.16594L18.016 1.5273L20.9387 2.30912L19.6796 6.97276C19.6796 6.97276 24.4523 8.02958 25.5751 11.9114C26.6978 15.7932 23.1069 17.8318 21.9978 17.9091C21.9978 17.9091 26.1796 20.2023 24.7433 24.7137C23.3069 29.225 18.8978 30.0318 14.2592 28.9978L13.0001 33.8341L10.0773 33.0523L11.3614 28.2909L9.04326 27.6591L7.75917 32.4546L4.85917 31.675L6.14553 26.9023L0.247803 25.3114L1.73417 22.0114C1.73417 22.0114 3.3978 22.4659 4.02735 22.6159C4.65689 22.7659 5.06144 22.1114 5.23871 21.4568C5.41598 20.8023 8.08644 9.95458 8.33871 9.06139C8.59098 8.16821 8.48871 7.47049 7.42962 7.19549C6.37053 6.92049 4.92962 6.49094 4.92962 6.49094L5.76826 3.41594ZM11.5637 17.7818L9.9728 24.1068C9.9728 24.1068 17.8614 26.9546 18.8705 22.9478C19.8796 18.9409 11.5637 17.7818 11.5637 17.7818ZM12.2955 14.7818L13.8569 8.98639C13.8569 8.98639 20.6114 10.1955 19.7796 13.4205C18.9478 16.6455 14.966 15.4091 12.2955 14.7818Z" fill="#f7931a"/>
</svg>
