<svg width="16" height="16" viewBox="0 0 16 16" fill="none" xmlns="http://www.w3.org/2000/svg">
<path fill-rule="evenodd" clip-rule="evenodd" d="M14.9387 2.43872C15.4966 1.88083 15.4966 0.976311 14.9387 0.418419C14.3808 -0.139473 13.4763 -0.139473 12.9184 0.418419L7.67857 5.65827L2.43872 0.418419C1.88083 -0.139473 0.976311 -0.139473 0.418419 0.418419C-0.139473 0.976311 -0.139473 1.88083 0.418419 2.43872L5.65827 7.67857L0.418419 12.9184C-0.139473 13.4763 -0.139473 14.3808 0.418419 14.9387C0.976311 15.4966 1.88083 15.4966 2.43872 14.9387L7.67857 9.69888L12.9184 14.9387C13.4763 15.4966 14.3808 15.4966 14.9387 14.9387C15.4966 14.3808 15.4966 13.4763 14.9387 12.9184L9.69888 7.67857L14.9387 2.43872Z" fill="url(#paint0_radial_24_150)"/>
<defs>
<radialGradient id="paint0_radial_24_150" cx="0" cy="0" r="1" gradientUnits="userSpaceOnUse" gradientTransform="translate(7.67857 7.67857) scale(7.67857 12.2867)">
<stop stop-color="#50C971"/>
<stop offset="1" stop-color="#276338"/>
</radialGradient>
</defs>
</svg>
