<svg width="8" height="13" viewBox="0 0 8 13" fill="none" xmlns="http://www.w3.org/2000/svg">
<path fill-rule="evenodd" clip-rule="evenodd" d="M2.94869 0.961548C3.60773 0.961548 4.26435 0.961548 4.9234 0.961548C4.88463 1.40737 4.84344 1.85562 4.80709 2.30144C5.57517 2.35717 6.32386 2.60431 6.99744 2.97017C6.70669 3.7019 6.41351 4.43363 6.12033 5.16536C5.55336 4.6832 4.80709 4.41667 4.06325 4.42636C3.87668 4.43121 3.68285 4.46755 3.52778 4.57416C3.42601 4.64443 3.3509 4.75346 3.3291 4.87461C3.31213 4.97153 3.31698 5.08056 3.37029 5.16779C3.43086 5.2647 3.53747 5.32286 3.64408 5.3592C3.86214 5.43673 4.09717 5.44158 4.32493 5.46581C4.8604 5.53123 5.39829 5.6233 5.90469 5.81471C6.29721 5.96494 6.67276 6.19027 6.94171 6.51979C7.19612 6.82266 7.34392 7.20549 7.39965 7.598C7.46507 8.0511 7.44568 8.52115 7.30515 8.96212C7.19612 9.31587 7.00955 9.6454 6.76726 9.92403C6.26571 10.5055 5.52913 10.8544 4.77317 10.9441C4.7974 11.4214 4.82648 11.8963 4.85313 12.3736C4.22801 12.3736 3.60531 12.3736 2.98261 12.3736C3.00684 11.9012 3.03834 11.4287 3.06015 10.9562C2.5586 10.9392 2.06189 10.8278 1.59426 10.6509C1.14117 10.4789 0.709888 10.2511 0.307678 9.98461C0.603278 9.2238 0.898878 8.463 1.1969 7.69977C1.53369 7.98325 1.89229 8.24735 2.2848 8.44846C2.7064 8.6641 3.17403 8.80221 3.64892 8.80706C3.87426 8.80948 4.10686 8.79736 4.32008 8.71983C4.45092 8.67137 4.57934 8.58657 4.63749 8.45331C4.69806 8.31277 4.69322 8.1359 4.60114 8.00991C4.53572 7.9251 4.44365 7.86695 4.34673 7.82576C4.21589 7.77246 4.08021 7.74338 3.9421 7.72157C3.43328 7.63919 2.92204 7.57135 2.43018 7.41144C2.03524 7.28302 1.64999 7.10372 1.33501 6.82751C1.13633 6.65548 0.971566 6.44468 0.855265 6.20723C0.680812 5.85348 0.615393 5.45369 0.620239 5.06118C0.620239 4.62262 0.709888 4.1768 0.927953 3.79155C1.11694 3.44749 1.40527 3.16643 1.72995 2.95079C2.12247 2.69153 2.56102 2.51466 3.00684 2.3717C2.98746 1.90165 2.96808 1.4316 2.94869 0.961548Z" fill="#83BD67"/>
</svg>
