<svg width="430" height="413" viewBox="0 0 430 413" fill="none" xmlns="http://www.w3.org/2000/svg">
<g opacity="0.11" filter="url(#filter0_f_0_1)">
<ellipse cx="218.5" cy="202.5" rx="128.5" ry="120.5" fill="#44C678"/>
</g>
<path opacity="0.1" fill-rule="evenodd" clip-rule="evenodd" d="M73 67H357V315H73V67ZM73.4437 67.4429H108.056V101.986H73.4437V67.4429ZM108.944 67.4429H143.556V101.986H108.944V67.4429ZM179.056 67.4429H144.444V101.986H179.056V67.4429ZM179.944 67.4429H214.556V101.986H179.944V67.4429ZM250.056 67.4429H215.444V101.986H250.056V67.4429ZM250.944 67.4429H285.556V101.986H250.944V67.4429ZM321.056 67.4429H286.444V101.986H321.056V67.4429ZM321.944 67.4429H356.556V101.986H321.944V67.4429ZM108.056 102.871H73.4437V137.414H108.056V102.871ZM108.944 102.871H143.556V137.414H108.944V102.871ZM179.056 102.871H144.444V137.414H179.056V102.871ZM179.944 102.871H214.556V137.414H179.944V102.871ZM250.056 102.871H215.444V137.414H250.056V102.871ZM250.944 102.871H285.556V137.414H250.944V102.871ZM321.056 102.871H286.444V137.414H321.056V102.871ZM321.944 102.871H356.556V137.414H321.944V102.871ZM108.056 138.3H73.4437V172.843H108.056V138.3ZM108.944 138.3H143.556V172.843H108.944V138.3ZM179.056 138.3H144.444V172.843H179.056V138.3ZM179.944 138.3H214.556V172.843H179.944V138.3ZM250.056 138.3H215.444V172.843H250.056V138.3ZM250.944 138.3H285.556V172.843H250.944V138.3ZM321.056 138.3H286.444V172.843H321.056V138.3ZM321.944 138.3H356.556V172.843H321.944V138.3ZM108.056 173.729H73.4437V208.271H108.056V173.729ZM108.944 173.729H143.556V208.271H108.944V173.729ZM179.056 173.729H144.444V208.271H179.056V173.729ZM179.944 173.729H214.556V208.271H179.944V173.729ZM250.056 173.729H215.444V208.271H250.056V173.729ZM250.944 173.729H285.556V208.271H250.944V173.729ZM321.056 173.729H286.444V208.271H321.056V173.729ZM321.944 173.729H356.556V208.271H321.944V173.729ZM108.056 209.157H73.4437V243.7H108.056V209.157ZM108.944 209.157H143.556V243.7H108.944V209.157ZM179.056 209.157H144.444V243.7H179.056V209.157ZM179.944 209.157H214.556V243.7H179.944V209.157ZM250.056 209.157H215.444V243.7H250.056V209.157ZM250.944 209.157H285.556V243.7H250.944V209.157ZM321.056 209.157H286.444V243.7H321.056V209.157ZM321.944 209.157H356.556V243.7H321.944V209.157ZM108.056 244.586H73.4437V279.129H108.056V244.586ZM108.944 244.586H143.556V279.129H108.944V244.586ZM179.056 244.586H144.444V279.129H179.056V244.586ZM179.944 244.586H214.556V279.129H179.944V244.586ZM250.056 244.586H215.444V279.129H250.056V244.586ZM250.944 244.586H285.556V279.129H250.944V244.586ZM321.056 244.586H286.444V279.129H321.056V244.586ZM321.944 244.586H356.556V279.129H321.944V244.586ZM108.056 280.014H73.4437V314.557H108.056V280.014ZM108.944 280.014H143.556V314.557H108.944V280.014ZM179.056 280.014H144.444V314.557H179.056V280.014ZM179.944 280.014H214.556V314.557H179.944V280.014ZM250.056 280.014H215.444V314.557H250.056V280.014ZM250.944 280.014H285.556V314.557H250.944V280.014ZM321.056 280.014H286.444V314.557H321.056V280.014ZM321.944 280.014H356.556V314.557H321.944V280.014Z" fill="url(#paint0_radial_0_1)" fill-opacity="0.5"/>
<defs>
<filter id="filter0_f_0_1" x="0.900002" y="-7.1" width="435.2" height="419.2" filterUnits="userSpaceOnUse" color-interpolation-filters="sRGB">
<feFlood flood-opacity="0" result="BackgroundImageFix"/>
<feBlend mode="normal" in="SourceGraphic" in2="BackgroundImageFix" result="shape"/>
<feGaussianBlur stdDeviation="44.55" result="effect1_foregroundBlur_0_1"/>
</filter>
<radialGradient id="paint0_radial_0_1" cx="0" cy="0" r="1" gradientUnits="userSpaceOnUse" gradientTransform="translate(215 191) rotate(90) scale(124 142)">
<stop stop-color="white"/>
<stop offset="1" stop-color="white" stop-opacity="0"/>
</radialGradient>
</defs>
</svg>
