<svg width="430" height="473" viewBox="0 0 430 473" fill="none" xmlns="http://www.w3.org/2000/svg">
<g filter="url(#filter0_f_0_1)">
<ellipse cx="220.5" cy="295" rx="120.5" ry="62" fill="#FFA800"/>
</g>
<path opacity="0.1" fill-rule="evenodd" clip-rule="evenodd" d="M76 74H360V322H76V74ZM76.4437 74.4429H111.056V108.986H76.4437V74.4429ZM111.944 74.4429H146.556V108.986H111.944V74.4429ZM182.056 74.4429H147.444V108.986H182.056V74.4429ZM182.944 74.4429H217.556V108.986H182.944V74.4429ZM253.056 74.4429H218.444V108.986H253.056V74.4429ZM253.944 74.4429H288.556V108.986H253.944V74.4429ZM324.056 74.4429H289.444V108.986H324.056V74.4429ZM324.944 74.4429H359.556V108.986H324.944V74.4429ZM111.056 109.871H76.4437V144.414H111.056V109.871ZM111.944 109.871H146.556V144.414H111.944V109.871ZM182.056 109.871H147.444V144.414H182.056V109.871ZM182.944 109.871H217.556V144.414H182.944V109.871ZM253.056 109.871H218.444V144.414H253.056V109.871ZM253.944 109.871H288.556V144.414H253.944V109.871ZM324.056 109.871H289.444V144.414H324.056V109.871ZM324.944 109.871H359.556V144.414H324.944V109.871ZM111.056 145.3H76.4437V179.843H111.056V145.3ZM111.944 145.3H146.556V179.843H111.944V145.3ZM182.056 145.3H147.444V179.843H182.056V145.3ZM182.944 145.3H217.556V179.843H182.944V145.3ZM253.056 145.3H218.444V179.843H253.056V145.3ZM253.944 145.3H288.556V179.843H253.944V145.3ZM324.056 145.3H289.444V179.843H324.056V145.3ZM324.944 145.3H359.556V179.843H324.944V145.3ZM111.056 180.729H76.4437V215.271H111.056V180.729ZM111.944 180.729H146.556V215.271H111.944V180.729ZM182.056 180.729H147.444V215.271H182.056V180.729ZM182.944 180.729H217.556V215.271H182.944V180.729ZM253.056 180.729H218.444V215.271H253.056V180.729ZM253.944 180.729H288.556V215.271H253.944V180.729ZM324.056 180.729H289.444V215.271H324.056V180.729ZM324.944 180.729H359.556V215.271H324.944V180.729ZM111.056 216.157H76.4437V250.7H111.056V216.157ZM111.944 216.157H146.556V250.7H111.944V216.157ZM182.056 216.157H147.444V250.7H182.056V216.157ZM182.944 216.157H217.556V250.7H182.944V216.157ZM253.056 216.157H218.444V250.7H253.056V216.157ZM253.944 216.157H288.556V250.7H253.944V216.157ZM324.056 216.157H289.444V250.7H324.056V216.157ZM324.944 216.157H359.556V250.7H324.944V216.157ZM111.056 251.586H76.4437V286.129H111.056V251.586ZM111.944 251.586H146.556V286.129H111.944V251.586ZM182.056 251.586H147.444V286.129H182.056V251.586ZM182.944 251.586H217.556V286.129H182.944V251.586ZM253.056 251.586H218.444V286.129H253.056V251.586ZM253.944 251.586H288.556V286.129H253.944V251.586ZM324.056 251.586H289.444V286.129H324.056V251.586ZM324.944 251.586H359.556V286.129H324.944V251.586ZM111.056 287.014H76.4437V321.557H111.056V287.014ZM111.944 287.014H146.556V321.557H111.944V287.014ZM182.056 287.014H147.444V321.557H182.056V287.014ZM182.944 287.014H217.556V321.557H182.944V287.014ZM253.056 287.014H218.444V321.557H253.056V287.014ZM253.944 287.014H288.556V321.557H253.944V287.014ZM324.056 287.014H289.444V321.557H324.056V287.014ZM324.944 287.014H359.556V321.557H324.944V287.014Z" fill="url(#paint0_radial_0_1)" fill-opacity="0.5"/>
<g filter="url(#filter1_f_0_1)">
<ellipse cx="218.5" cy="326" rx="145.5" ry="62" fill="white"/>
</g>
<g opacity="0.11" filter="url(#filter2_f_0_1)">
<ellipse cx="221.5" cy="226.5" rx="120.5" ry="110.5" fill="#FFA800"/>
</g>
<defs>
<filter id="filter0_f_0_1" x="-15.8" y="117.2" width="472.6" height="355.6" filterUnits="userSpaceOnUse" color-interpolation-filters="sRGB">
<feFlood flood-opacity="0" result="BackgroundImageFix"/>
<feBlend mode="normal" in="SourceGraphic" in2="BackgroundImageFix" result="shape"/>
<feGaussianBlur stdDeviation="57.9" result="effect1_foregroundBlur_0_1"/>
</filter>
<filter id="filter1_f_0_1" x="48.6" y="239.6" width="339.8" height="172.8" filterUnits="userSpaceOnUse" color-interpolation-filters="sRGB">
<feFlood flood-opacity="0" result="BackgroundImageFix"/>
<feBlend mode="normal" in="SourceGraphic" in2="BackgroundImageFix" result="shape"/>
<feGaussianBlur stdDeviation="12.2" result="effect1_foregroundBlur_0_1"/>
</filter>
<filter id="filter2_f_0_1" x="-14.8" y="0.199997" width="472.6" height="452.6" filterUnits="userSpaceOnUse" color-interpolation-filters="sRGB">
<feFlood flood-opacity="0" result="BackgroundImageFix"/>
<feBlend mode="normal" in="SourceGraphic" in2="BackgroundImageFix" result="shape"/>
<feGaussianBlur stdDeviation="57.9" result="effect1_foregroundBlur_0_1"/>
</filter>
<radialGradient id="paint0_radial_0_1" cx="0" cy="0" r="1" gradientUnits="userSpaceOnUse" gradientTransform="translate(218 198) rotate(90) scale(124 142)">
<stop stop-color="white"/>
<stop offset="1" stop-color="white" stop-opacity="0"/>
</radialGradient>
</defs>
</svg>
