<svg width="42" height="41" viewBox="0 0 42 41" fill="none" xmlns="http://www.w3.org/2000/svg">
<path d="M36.2897 11.1584L33.133 11.1422C35.9193 9.43609 37.1627 6.13038 35.9259 3.41333C34.9779 1.33066 32.754 0 30.3967 0C29.3972 0 28.3736 0.239273 27.413 0.762023C25.2975 1.91283 23.6639 3.5272 22.4128 5.16848C22.3907 5.19731 22.3685 5.22542 22.3466 5.25417C22.1549 5.50849 21.9735 5.76186 21.8002 6.01587C21.7299 6.11749 21.6591 6.21759 21.59 6.32145C21.5152 6.435 21.4467 6.54631 21.3757 6.65898C21.248 6.85789 21.1184 7.05248 20.9948 7.2586C19.6658 4.99391 17.6089 2.40571 14.587 0.761943C13.6264 0.239273 12.603 0 11.6033 0C9.24608 0 7.02231 1.33066 6.07435 3.41333C5.04414 5.67618 5.7381 8.34534 7.60728 10.1609C7.98013 10.5291 8.39789 10.8662 8.86323 11.1584H1.95569V19.7087C1.95569 19.881 2.09534 20.0205 2.26751 20.0205H18.6218V11.2156H23.3783V20.0204H39.7326C39.9048 20.0204 40.0443 19.8809 40.0443 19.7086V11.1584H36.2897ZM16.3294 9.00599C14.418 9.00599 12.7201 8.67446 11.283 8.02038C10.5558 7.68942 9.97375 7.12327 9.68619 6.46727C9.55574 6.16978 9.37477 5.58769 9.62813 5.03091C9.92514 4.37835 10.756 3.90477 11.6037 3.90477C11.995 3.90477 12.3708 4.00142 12.721 4.19193C14.5778 5.20195 15.9782 6.73913 16.9996 8.2418C17.156 8.47675 17.3092 8.71786 17.4584 8.96811C17.0942 8.99189 16.7168 9.00599 16.3294 9.00599ZM32.3139 6.46727C32.0262 7.12327 31.4442 7.68942 30.7169 8.02038C29.2799 8.67446 27.5821 9.00599 25.6706 9.00599C25.3281 9.00599 24.997 8.99157 24.6723 8.97251C24.6271 8.96755 24.5817 8.96595 24.5365 8.9597C25.5825 7.24427 27.125 5.36371 29.279 4.19193C29.6292 4.00142 30.0053 3.90477 30.3966 3.90477C31.2442 3.90477 32.0748 4.37835 32.3718 5.03091C32.6255 5.58761 32.4443 6.16978 32.3139 6.46727Z" fill="#44C678"/>
<path d="M6.59875 36.4571C6.59875 38.9662 8.63274 41 11.1416 41H18.6217V22.4268H6.59875V36.4571Z" fill="#44C678"/>
<path d="M23.3783 41H30.8586C33.3674 41 35.4012 38.9662 35.4012 36.4571V22.4268H23.3783V41Z" fill="#44C678"/>
</svg>
