<svg width="42" height="41" viewBox="0 0 42 41" fill="none" xmlns="http://www.w3.org/2000/svg">
<path d="M26.9792 12.8125C26.9792 16.1147 24.3022 18.7916 21 18.7916C17.6978 18.7916 15.0208 16.1147 15.0208 12.8125C15.0208 9.51028 17.6978 6.83331 21 6.83331C24.3022 6.83331 26.9792 9.51028 26.9792 12.8125Z" fill="#DC9731"/>
<path d="M31.25 28.1875C31.25 31.4897 26.6609 34.1666 21 34.1666C15.3391 34.1666 10.75 31.4897 10.75 28.1875C10.75 24.8853 15.3391 22.2083 21 22.2083C26.6609 22.2083 31.25 24.8853 31.25 28.1875Z" fill="#DC9731"/>
<path d="M12.6668 8.54169C12.97 8.54169 13.266 8.57143 13.5518 8.62807C12.8555 9.86472 12.4583 11.2922 12.4583 12.8125C12.4583 14.2958 12.8364 15.6908 13.5014 16.9063C13.2313 16.9566 12.9522 16.983 12.6668 16.983C10.2505 16.983 8.29175 15.0934 8.29175 12.7623C8.29175 10.4313 10.2505 8.54169 12.6668 8.54169Z" fill="#DC9731"/>
<path d="M9.80587 32.4344C8.83568 31.2746 8.1875 29.8515 8.1875 28.1875C8.1875 26.5744 8.79665 25.1877 9.71779 24.0478C6.46396 24.3001 3.91667 26.0798 3.91667 28.2377C3.91667 30.4159 6.50873 32.2087 9.80587 32.4344Z" fill="#DC9731"/>
<path d="M29.5415 12.8125C29.5415 14.2958 29.1634 15.6908 28.4984 16.9063C28.7686 16.9566 29.0476 16.983 29.333 16.983C31.7493 16.983 33.7081 15.0934 33.7081 12.7623C33.7081 10.4313 31.7493 8.54169 29.333 8.54169C29.0298 8.54169 28.7339 8.57143 28.4481 8.62807C29.1443 9.86472 29.5415 11.2922 29.5415 12.8125Z" fill="#DC9731"/>
<path d="M32.194 32.4344C35.4911 32.2087 38.0832 30.4159 38.0832 28.2377C38.0832 26.0798 35.5359 24.3001 32.2821 24.0478C33.2032 25.1877 33.8123 26.5744 33.8123 28.1875C33.8123 29.8515 33.1642 31.2746 32.194 32.4344Z" fill="#DC9731"/>
</svg>
