<svg width="21" height="20" viewBox="0 0 21 20" fill="none" xmlns="http://www.w3.org/2000/svg">
<path d="M13.607 3.23662C14.8023 2.03671 16.5507 2.01151 17.5185 2.98315C18.4883 3.95663 18.4621 5.716 17.2661 6.91672L15.2462 8.94443C15.0026 9.18898 15.0034 9.5847 15.2479 9.82831C15.4925 10.0719 15.8882 10.0711 16.1318 9.82659L18.1516 7.79889C19.7444 6.19996 19.9444 3.64719 18.4041 2.10098C16.8621 0.552939 14.315 0.754699 12.7214 2.35445L8.68169 6.40983C7.08894 8.00876 6.88898 10.5616 8.4292 12.1078C8.6728 12.3523 9.06853 12.3531 9.31308 12.1095C9.55763 11.8659 9.5584 11.4701 9.3148 11.2256C8.34508 10.2521 8.3712 8.49272 9.56728 7.292L13.607 3.23662Z" fill="white"/>
<path d="M12.5708 7.89226C12.3272 7.64771 11.9315 7.64694 11.6869 7.89055C11.4424 8.13415 11.4416 8.52988 11.6852 8.77443C12.6549 9.74791 12.6288 11.5073 11.4327 12.708L7.39303 16.7634C6.19776 17.9633 4.44936 17.9885 3.48147 17.0169C2.51175 16.0434 2.53787 14.284 3.73395 13.0833L5.75382 11.0556C5.99743 10.811 5.99666 10.4153 5.75211 10.1717C5.50756 9.92807 5.11183 9.92883 4.86823 10.1734L2.84836 12.2011C1.25561 13.8 1.05564 16.3528 2.59587 17.899C4.13793 19.4471 6.68506 19.2453 8.27862 17.6456L12.3183 13.5902C13.9111 11.9912 14.111 9.43847 12.5708 7.89226Z" fill="white"/>
</svg>
