<svg width="24" height="24" viewBox="0 0 24 24" fill="none" xmlns="http://www.w3.org/2000/svg">
<path fill-rule="evenodd" clip-rule="evenodd" d="M1.8 12C1.8 6.36671 6.36669 1.80001 12 1.80001C17.6333 1.80001 22.2 6.36671 22.2 12C22.2 17.6333 17.6333 22.2 12 22.2C6.36669 22.2 1.8 17.6333 1.8 12ZM12 0.200012C5.48304 0.200012 0.199997 5.48305 0.199997 12C0.199997 18.517 5.48304 23.8 12 23.8C18.517 23.8 23.8 18.517 23.8 12C23.8 5.48305 18.517 0.200012 12 0.200012ZM12 13.25C12.6904 13.25 13.25 12.6904 13.25 12C13.25 11.3097 12.6904 10.75 12 10.75C11.3097 10.75 10.75 11.3097 10.75 12C10.75 12.6904 11.3097 13.25 12 13.25ZM8.25005 12C8.25005 12.6904 7.6904 13.25 7.00005 13.25C6.30969 13.25 5.75005 12.6904 5.75005 12C5.75005 11.3097 6.30969 10.75 7.00005 10.75C7.6904 10.75 8.25005 11.3097 8.25005 12ZM17 13.25C17.6904 13.25 18.25 12.6904 18.25 12C18.25 11.3097 17.6904 10.75 17 10.75C16.3097 10.75 15.75 11.3097 15.75 12C15.75 12.6904 16.3097 13.25 17 13.25Z" fill="white"/>
</svg>
