<svg width="430" height="421" viewBox="0 0 430 421" fill="none" xmlns="http://www.w3.org/2000/svg">
<g opacity="0.1" filter="url(#filter0_f_0_1)">
<ellipse cx="217.5" cy="210.5" rx="128.5" ry="120.5" fill="#2C9AFF"/>
</g>
<path opacity="0.1" fill-rule="evenodd" clip-rule="evenodd" d="M78 83H362V331H78V83ZM78.4437 83.4429H113.056V117.986H78.4437V83.4429ZM113.944 83.4429H148.556V117.986H113.944V83.4429ZM184.056 83.4429H149.444V117.986H184.056V83.4429ZM184.944 83.4429H219.556V117.986H184.944V83.4429ZM255.056 83.4429H220.444V117.986H255.056V83.4429ZM255.944 83.4429H290.556V117.986H255.944V83.4429ZM326.056 83.4429H291.444V117.986H326.056V83.4429ZM326.944 83.4429H361.556V117.986H326.944V83.4429ZM113.056 118.871H78.4437V153.414H113.056V118.871ZM113.944 118.871H148.556V153.414H113.944V118.871ZM184.056 118.871H149.444V153.414H184.056V118.871ZM184.944 118.871H219.556V153.414H184.944V118.871ZM255.056 118.871H220.444V153.414H255.056V118.871ZM255.944 118.871H290.556V153.414H255.944V118.871ZM326.056 118.871H291.444V153.414H326.056V118.871ZM326.944 118.871H361.556V153.414H326.944V118.871ZM113.056 154.3H78.4437V188.843H113.056V154.3ZM113.944 154.3H148.556V188.843H113.944V154.3ZM184.056 154.3H149.444V188.843H184.056V154.3ZM184.944 154.3H219.556V188.843H184.944V154.3ZM255.056 154.3H220.444V188.843H255.056V154.3ZM255.944 154.3H290.556V188.843H255.944V154.3ZM326.056 154.3H291.444V188.843H326.056V154.3ZM326.944 154.3H361.556V188.843H326.944V154.3ZM113.056 189.729H78.4437V224.271H113.056V189.729ZM113.944 189.729H148.556V224.271H113.944V189.729ZM184.056 189.729H149.444V224.271H184.056V189.729ZM184.944 189.729H219.556V224.271H184.944V189.729ZM255.056 189.729H220.444V224.271H255.056V189.729ZM255.944 189.729H290.556V224.271H255.944V189.729ZM326.056 189.729H291.444V224.271H326.056V189.729ZM326.944 189.729H361.556V224.271H326.944V189.729ZM113.056 225.157H78.4437V259.7H113.056V225.157ZM113.944 225.157H148.556V259.7H113.944V225.157ZM184.056 225.157H149.444V259.7H184.056V225.157ZM184.944 225.157H219.556V259.7H184.944V225.157ZM255.056 225.157H220.444V259.7H255.056V225.157ZM255.944 225.157H290.556V259.7H255.944V225.157ZM326.056 225.157H291.444V259.7H326.056V225.157ZM326.944 225.157H361.556V259.7H326.944V225.157ZM113.056 260.586H78.4437V295.129H113.056V260.586ZM113.944 260.586H148.556V295.129H113.944V260.586ZM184.056 260.586H149.444V295.129H184.056V260.586ZM184.944 260.586H219.556V295.129H184.944V260.586ZM255.056 260.586H220.444V295.129H255.056V260.586ZM255.944 260.586H290.556V295.129H255.944V260.586ZM326.056 260.586H291.444V295.129H326.056V260.586ZM326.944 260.586H361.556V295.129H326.944V260.586ZM113.056 296.014H78.4437V330.557H113.056V296.014ZM113.944 296.014H148.556V330.557H113.944V296.014ZM184.056 296.014H149.444V330.557H184.056V296.014ZM184.944 296.014H219.556V330.557H184.944V296.014ZM255.056 296.014H220.444V330.557H255.056V296.014ZM255.944 296.014H290.556V330.557H255.944V296.014ZM326.056 296.014H291.444V330.557H326.056V296.014ZM326.944 296.014H361.556V330.557H326.944V296.014Z" fill="url(#paint0_radial_0_1)" fill-opacity="0.5"/>
<defs>
<filter id="filter0_f_0_1" x="-0.0999985" y="0.900002" width="435.2" height="419.2" filterUnits="userSpaceOnUse" color-interpolation-filters="sRGB">
<feFlood flood-opacity="0" result="BackgroundImageFix"/>
<feBlend mode="normal" in="SourceGraphic" in2="BackgroundImageFix" result="shape"/>
<feGaussianBlur stdDeviation="44.55" result="effect1_foregroundBlur_0_1"/>
</filter>
<radialGradient id="paint0_radial_0_1" cx="0" cy="0" r="1" gradientUnits="userSpaceOnUse" gradientTransform="translate(220 207) rotate(90) scale(124 142)">
<stop stop-color="white"/>
<stop offset="1" stop-color="white" stop-opacity="0"/>
</radialGradient>
</defs>
</svg>
