<svg width="15" height="20" viewBox="0 0 15 20" fill="none" xmlns="http://www.w3.org/2000/svg">
<g filter="url(#filter0_i_24_104)">
<path d="M14.322 9.67939L5.09566 19.5647C4.99789 19.6691 4.86883 19.7388 4.72796 19.7633C4.58709 19.7879 4.44206 19.766 4.31474 19.7009C4.18743 19.6358 4.08474 19.531 4.02217 19.4025C3.95961 19.2739 3.94056 19.1284 3.96791 18.9881L5.17557 12.9473L0.428134 11.1647C0.326177 11.1265 0.235254 11.0637 0.16349 10.9819C0.0917253 10.9 0.0413543 10.8017 0.0168767 10.6956C-0.0076008 10.5895 -0.00542235 10.479 0.0232173 10.374C0.0518569 10.269 0.106066 10.1727 0.181001 10.0937L9.40732 0.20841C9.50509 0.104066 9.63415 0.0343548 9.77501 0.00979444C9.91588 -0.0147659 10.0609 0.00715769 10.1882 0.072257C10.3156 0.137356 10.4182 0.242099 10.4808 0.370679C10.5434 0.499259 10.5624 0.6447 10.5351 0.785054L9.32411 6.83241L14.0715 8.61259C14.1728 8.65099 14.2629 8.71372 14.3341 8.79525C14.4054 8.87677 14.4554 8.97458 14.4798 9.08004C14.5042 9.18549 14.5023 9.29533 14.4742 9.39987C14.4461 9.5044 14.3927 9.6004 14.3187 9.67939H14.322Z" fill="url(#paint0_diamond_24_104)"/>
</g>
<defs>
<filter id="filter0_i_24_104" x="0" y="0" width="14.4968" height="20.3004" filterUnits="userSpaceOnUse" color-interpolation-filters="sRGB">
<feFlood flood-opacity="0" result="BackgroundImageFix"/>
<feBlend mode="normal" in="SourceGraphic" in2="BackgroundImageFix" result="shape"/>
<feColorMatrix in="SourceAlpha" type="matrix" values="0 0 0 0 0 0 0 0 0 0 0 0 0 0 0 0 0 0 127 0" result="hardAlpha"/>
<feOffset dy="0.527218"/>
<feGaussianBlur stdDeviation="0.448135"/>
<feComposite in2="hardAlpha" operator="arithmetic" k2="-1" k3="1"/>
<feColorMatrix type="matrix" values="0 0 0 0 1 0 0 0 0 1 0 0 0 0 1 0 0 0 0.65 0"/>
<feBlend mode="normal" in2="shape" result="effect1_innerShadow_24_104"/>
</filter>
<radialGradient id="paint0_diamond_24_104" cx="0" cy="0" r="1" gradientUnits="userSpaceOnUse" gradientTransform="translate(7.24841 9.88657) rotate(105.01) scale(11.1928 4.02633)">
<stop stop-color="#FFDF67"/>
<stop offset="1" stop-color="#FF8800"/>
</radialGradient>
</defs>
</svg>
