<svg width="13" height="15" viewBox="0 0 13 15" fill="none" xmlns="http://www.w3.org/2000/svg">
<path d="M6.50001 0.270844C6.50001 0.270844 9.68751 1.71584 9.68751 7.70834C9.68751 9.47209 8.95084 11.6538 8.55418 12.6667H4.44584C4.04918 11.6538 3.31251 9.47209 3.31251 7.70834C3.31251 1.71584 6.50001 0.270844 6.50001 0.270844ZM7.91668 6.29168C7.91668 5.51251 7.27918 4.87501 6.50001 4.87501C5.72084 4.87501 5.08334 5.51251 5.08334 6.29168C5.08334 7.07084 5.72084 7.70834 6.50001 7.70834C7.27918 7.70834 7.91668 7.07084 7.91668 6.29168ZM3.44709 13.035C3.10709 12.1638 2.37043 10.0813 2.26418 8.16876L1.46376 8.70001C1.06709 8.96918 0.833344 9.40834 0.833344 9.88293V14.0833L3.44709 13.035ZM12.1667 14.0833V9.88293C12.1667 9.40834 11.9329 8.96918 11.5363 8.70709L10.7358 8.17584C10.6296 10.0813 9.88584 12.1708 9.55293 13.0421L12.1667 14.0833Z" fill="#C0C3CB"/>
</svg>
