<svg width="26" height="22" viewBox="0 0 26 22" fill="none" xmlns="http://www.w3.org/2000/svg">
<path fill-rule="evenodd" clip-rule="evenodd" d="M23.3433 0.329599C24.7192 -0.249746 26.1943 0.913738 25.9513 2.38678L23.0817 19.7856C22.805 21.4632 20.9625 22.4258 19.4234 21.5898C18.1355 20.8903 16.2247 19.8136 14.5026 18.6883C13.6427 18.1264 11.0097 16.3246 11.3333 15.042C11.61 13.9454 16.0365 9.82494 18.566 7.37448C19.5596 6.41191 19.1071 5.85584 17.9337 6.7421C15.0227 8.94062 10.3492 12.2832 8.80374 13.224C7.44017 14.0539 6.72822 14.1955 5.879 14.0539C4.32825 13.7955 2.89052 13.3953 1.71672 12.9088C0.130256 12.2511 0.207533 10.0709 1.71565 9.43602L23.3433 0.329599Z" fill="#2C9AFF"/>
</svg>
