<svg width="115" height="115" viewBox="0 0 115 115" fill="none" xmlns="http://www.w3.org/2000/svg">
<path fill-rule="evenodd" clip-rule="evenodd" d="M111.731 8.02602C110.319 5.33489 108.018 3.21573 105.221 2.02861C102.708 0.74914 99.9351 0.0651087 97.116 0.0294798H18.2716C15.2958 -0.156297 12.3312 0.539041 9.74829 2.02861C8.11449 2.56532 6.60405 3.4223 5.30526 4.54947C4.00647 5.67664 2.94537 7.05138 2.18398 8.59334C0.484977 11.477 -0.252985 14.8262 0.0767849 18.1568C0.318582 21.2321 1.41318 24.1791 3.23758 26.6666L52.1219 112.035C52.7315 112.928 53.5465 113.661 54.4985 114.174C55.4505 114.686 56.5115 114.963 57.5925 114.98C58.7046 115.073 59.8199 114.844 60.8063 114.322C61.7927 113.801 62.6087 113.007 63.1577 112.035L112.258 26.6666C113.983 23.9787 114.828 20.8202 114.676 17.63C114.516 14.2322 113.503 10.9294 111.731 8.02602ZM51.3925 85.398L13.7466 19.6967C12.774 17.6975 12.2742 16.698 12.2742 16.698C12.133 15.806 12.31 14.8927 12.774 14.118C13.1508 13.2141 13.8693 12.4957 14.7731 12.1189H51.3925V85.398ZM101.641 17.0627C101.844 18.0701 101.844 19.1079 101.641 20.1154L63.1577 85.7222V12.5511H96.5892C97.7712 12.4215 98.9667 12.5983 100.061 13.0644L100.587 13.5912C101.114 13.5912 101.114 14.5367 101.641 14.5367C101.884 15.3612 101.884 16.2382 101.641 17.0627Z" fill="url(#paint0_linear_4014_359)"/>
<defs>
<linearGradient id="paint0_linear_4014_359" x1="58.9522" y1="0" x2="58.9522" y2="115" gradientUnits="userSpaceOnUse">
<stop offset="0.427627" stop-color="#fff"/>
<stop offset="1" stop-color="#fff"/>
</linearGradient>
</defs>
</svg>
