<svg width="116" height="116" viewBox="0 0 116 116" fill="none" xmlns="http://www.w3.org/2000/svg">
<path d="M58.0306 115.354C89.6893 115.354 115.354 89.6895 115.354 58.0308C115.354 26.3722 89.6893 0.707764 58.0306 0.707764C26.3719 0.707764 0.70752 26.3722 0.70752 58.0308C0.70752 89.6895 26.3719 115.354 58.0306 115.354Z" fill="url(#paint0_linear_0_1)"/>
<path d="M58.0311 111.09C86.8117 111.09 110.143 87.7592 110.143 58.9786C110.143 30.198 86.8117 6.8667 58.0311 6.8667C29.2505 6.8667 5.91919 30.198 5.91919 58.9786C5.91919 87.7592 29.2505 111.09 58.0311 111.09Z" fill="#4c81cf"/>
<path d="M57.7941 106.826C84.6124 106.826 106.353 85.085 106.353 58.2667C106.353 31.4484 84.6124 9.70789 57.7941 9.70789C30.9758 9.70789 9.23523 31.4484 9.23523 58.2667C9.23523 85.085 30.9758 106.826 57.7941 106.826Z" fill="#00d0ef"/>
<defs>
<linearGradient id="paint0_linear_0_1" x1="104.114" y1="17.5675" x2="0.707525" y2="76.0146" gradientUnits="userSpaceOnUse">
<stop stop-color="#00d0ef"/>
<stop offset="0.5" stop-color="#00d0ef"/>
<stop offset="0.53" stop-color="#00d0ef"/>
<stop offset="0.615" stop-color="#00d0ef"/>
</linearGradient>
</defs>
</svg>
