<svg width="430" height="487" viewBox="0 0 430 487" fill="none" xmlns="http://www.w3.org/2000/svg">
<g filter="url(#filter0_f_0_1)">
<ellipse cx="220.5" cy="309" rx="120.5" ry="62" fill="#FFA800"/>
</g>
<path opacity="0.1" fill-rule="evenodd" clip-rule="evenodd" d="M76 88H360V336H76V88ZM76.4437 88.4429H111.056V122.986H76.4437V88.4429ZM111.944 88.4429H146.556V122.986H111.944V88.4429ZM182.056 88.4429H147.444V122.986H182.056V88.4429ZM182.944 88.4429H217.556V122.986H182.944V88.4429ZM253.056 88.4429H218.444V122.986H253.056V88.4429ZM253.944 88.4429H288.556V122.986H253.944V88.4429ZM324.056 88.4429H289.444V122.986H324.056V88.4429ZM324.944 88.4429H359.556V122.986H324.944V88.4429ZM111.056 123.871H76.4437V158.414H111.056V123.871ZM111.944 123.871H146.556V158.414H111.944V123.871ZM182.056 123.871H147.444V158.414H182.056V123.871ZM182.944 123.871H217.556V158.414H182.944V123.871ZM253.056 123.871H218.444V158.414H253.056V123.871ZM253.944 123.871H288.556V158.414H253.944V123.871ZM324.056 123.871H289.444V158.414H324.056V123.871ZM324.944 123.871H359.556V158.414H324.944V123.871ZM111.056 159.3H76.4437V193.843H111.056V159.3ZM111.944 159.3H146.556V193.843H111.944V159.3ZM182.056 159.3H147.444V193.843H182.056V159.3ZM182.944 159.3H217.556V193.843H182.944V159.3ZM253.056 159.3H218.444V193.843H253.056V159.3ZM253.944 159.3H288.556V193.843H253.944V159.3ZM324.056 159.3H289.444V193.843H324.056V159.3ZM324.944 159.3H359.556V193.843H324.944V159.3ZM111.056 194.729H76.4437V229.271H111.056V194.729ZM111.944 194.729H146.556V229.271H111.944V194.729ZM182.056 194.729H147.444V229.271H182.056V194.729ZM182.944 194.729H217.556V229.271H182.944V194.729ZM253.056 194.729H218.444V229.271H253.056V194.729ZM253.944 194.729H288.556V229.271H253.944V194.729ZM324.056 194.729H289.444V229.271H324.056V194.729ZM324.944 194.729H359.556V229.271H324.944V194.729ZM111.056 230.157H76.4437V264.7H111.056V230.157ZM111.944 230.157H146.556V264.7H111.944V230.157ZM182.056 230.157H147.444V264.7H182.056V230.157ZM182.944 230.157H217.556V264.7H182.944V230.157ZM253.056 230.157H218.444V264.7H253.056V230.157ZM253.944 230.157H288.556V264.7H253.944V230.157ZM324.056 230.157H289.444V264.7H324.056V230.157ZM324.944 230.157H359.556V264.7H324.944V230.157ZM111.056 265.586H76.4437V300.129H111.056V265.586ZM111.944 265.586H146.556V300.129H111.944V265.586ZM182.056 265.586H147.444V300.129H182.056V265.586ZM182.944 265.586H217.556V300.129H182.944V265.586ZM253.056 265.586H218.444V300.129H253.056V265.586ZM253.944 265.586H288.556V300.129H253.944V265.586ZM324.056 265.586H289.444V300.129H324.056V265.586ZM324.944 265.586H359.556V300.129H324.944V265.586ZM111.056 301.014H76.4437V335.557H111.056V301.014ZM111.944 301.014H146.556V335.557H111.944V301.014ZM182.056 301.014H147.444V335.557H182.056V301.014ZM182.944 301.014H217.556V335.557H182.944V301.014ZM253.056 301.014H218.444V335.557H253.056V301.014ZM253.944 301.014H288.556V335.557H253.944V301.014ZM324.056 301.014H289.444V335.557H324.056V301.014ZM324.944 301.014H359.556V335.557H324.944V301.014Z" fill="url(#paint0_radial_0_1)" fill-opacity="0.5"/>
<g filter="url(#filter1_f_0_1)">
<ellipse cx="218.5" cy="340" rx="145.5" ry="62" fill="white"/>
</g>
<g opacity="0.11" filter="url(#filter2_f_0_1)">
<ellipse cx="216.5" cy="177.5" rx="120.5" ry="110.5" fill="#FFA800"/>
</g>
<defs>
<filter id="filter0_f_0_1" x="-15.8" y="131.2" width="472.6" height="355.6" filterUnits="userSpaceOnUse" color-interpolation-filters="sRGB">
<feFlood flood-opacity="0" result="BackgroundImageFix"/>
<feBlend mode="normal" in="SourceGraphic" in2="BackgroundImageFix" result="shape"/>
<feGaussianBlur stdDeviation="57.9" result="effect1_foregroundBlur_0_1"/>
</filter>
<filter id="filter1_f_0_1" x="48.6" y="253.6" width="339.8" height="172.8" filterUnits="userSpaceOnUse" color-interpolation-filters="sRGB">
<feFlood flood-opacity="0" result="BackgroundImageFix"/>
<feBlend mode="normal" in="SourceGraphic" in2="BackgroundImageFix" result="shape"/>
<feGaussianBlur stdDeviation="12.2" result="effect1_foregroundBlur_0_1"/>
</filter>
<filter id="filter2_f_0_1" x="-19.8" y="-48.8" width="472.6" height="452.6" filterUnits="userSpaceOnUse" color-interpolation-filters="sRGB">
<feFlood flood-opacity="0" result="BackgroundImageFix"/>
<feBlend mode="normal" in="SourceGraphic" in2="BackgroundImageFix" result="shape"/>
<feGaussianBlur stdDeviation="57.9" result="effect1_foregroundBlur_0_1"/>
</filter>
<radialGradient id="paint0_radial_0_1" cx="0" cy="0" r="1" gradientUnits="userSpaceOnUse" gradientTransform="translate(218 212) rotate(90) scale(124 142)">
<stop stop-color="white"/>
<stop offset="1" stop-color="white" stop-opacity="0"/>
</radialGradient>
</defs>
</svg>
